<?xml version="1.0" encoding="UTF-8" standalone="no"?>
<!DOCTYPE svg PUBLIC "-//W3C//DTD SVG 1.1//EN"
 "http://www.w3.org/Graphics/SVG/1.1/DTD/svg11.dtd">
<!-- Generated by graphviz version 7.1.0 (20230121.1956)
 -->
<!-- Pages: 1 -->
<svg width="122pt" height="184pt"
 viewBox="0.00 0.00 122.00 184.00" xmlns="http://www.w3.org/2000/svg" xmlns:xlink="http://www.w3.org/1999/xlink">
<g id="graph0" class="graph" transform="scale(1 1) rotate(0) translate(4 180)">
<polygon fill="white" stroke="none" points="-4,4 -4,-180 118,-180 118,4 -4,4"/>
<!-- tbl -->
<g id="node1" class="node">
<title>tbl</title>
<polygon fill="yellow" stroke="none" points="8,-151 8,-172 106,-172 106,-151 8,-151"/>
<polygon fill="none" stroke="black" points="8,-151 8,-172 106,-172 106,-151 8,-151"/>
<text text-anchor="start" x="30" y="-157.8" font-family="Times New Roman,serif" font-size="14.00">maquina1</text>
<polygon fill="none" stroke="black" points="8,-130 8,-151 42,-151 42,-130 8,-130"/>
<text text-anchor="start" x="13.5" y="-136.8" font-family="Times New Roman,serif" font-size="14.00">PIN</text>
<polygon fill="none" stroke="black" points="42,-130 42,-151 106,-151 106,-130 42,-130"/>
<text text-anchor="start" x="45" y="-136.8" font-family="Times New Roman,serif" font-size="14.00">Elementos</text>
<polygon fill="none" stroke="black" points="8,-109 8,-130 42,-130 42,-109 8,-109"/>
<text text-anchor="start" x="11" y="-115.8" font-family="Times New Roman,serif" font-size="14.00">Pin:1</text>
<polygon fill="none" stroke="black" points="42,-109 42,-130 106,-130 106,-109 42,-109"/>
<polygon fill="#4ca009" stroke="none" points="45,-112 45,-127 74,-127 74,-112 45,-112"/>
<text text-anchor="start" x="54.5" y="-115.8" font-family="Times New Roman,serif" font-size="14.00">A</text>
<polygon fill="#de186d" stroke="none" points="74,-112 74,-127 103,-127 103,-112 74,-112"/>
<text text-anchor="start" x="83.5" y="-115.8" font-family="Times New Roman,serif" font-size="14.00">B</text>
<polygon fill="none" stroke="black" points="8,-88 8,-109 42,-109 42,-88 8,-88"/>
<text text-anchor="start" x="11" y="-94.8" font-family="Times New Roman,serif" font-size="14.00">Pin:2</text>
<polygon fill="none" stroke="black" points="42,-88 42,-109 106,-109 106,-88 42,-88"/>
<polygon fill="#c01847" stroke="none" points="45,-91 45,-106 74,-106 74,-91 45,-91"/>
<text text-anchor="start" x="54.5" y="-94.8" font-family="Times New Roman,serif" font-size="14.00">C</text>
<polygon fill="#305277" stroke="none" points="74,-91 74,-106 103,-106 103,-91 74,-91"/>
<text text-anchor="start" x="83.5" y="-94.8" font-family="Times New Roman,serif" font-size="14.00">D</text>
<polygon fill="yellow" stroke="none" points="8,-67 8,-88 106,-88 106,-67 8,-67"/>
<polygon fill="none" stroke="black" points="8,-67 8,-88 106,-88 106,-67 8,-67"/>
<text text-anchor="start" x="30" y="-73.8" font-family="Times New Roman,serif" font-size="14.00">maquina2</text>
<polygon fill="none" stroke="black" points="8,-46 8,-67 42,-67 42,-46 8,-46"/>
<text text-anchor="start" x="13.5" y="-52.8" font-family="Times New Roman,serif" font-size="14.00">PIN</text>
<polygon fill="none" stroke="black" points="42,-46 42,-67 106,-67 106,-46 42,-46"/>
<text text-anchor="start" x="45" y="-52.8" font-family="Times New Roman,serif" font-size="14.00">Elementos</text>
<polygon fill="none" stroke="black" points="8,-25 8,-46 42,-46 42,-25 8,-25"/>
<text text-anchor="start" x="11" y="-31.8" font-family="Times New Roman,serif" font-size="14.00">Pin:1</text>
<polygon fill="none" stroke="black" points="42,-25 42,-46 106,-46 106,-25 42,-25"/>
<polygon fill="#db8c8a" stroke="none" points="45,-28 45,-43 74,-43 74,-28 45,-28"/>
<text text-anchor="start" x="55" y="-31.8" font-family="Times New Roman,serif" font-size="14.00">E</text>
<polygon fill="#c06eaf" stroke="none" points="74,-28 74,-43 103,-43 103,-28 74,-28"/>
<text text-anchor="start" x="84" y="-31.8" font-family="Times New Roman,serif" font-size="14.00">F</text>
<polygon fill="none" stroke="black" points="8,-4 8,-25 42,-25 42,-4 8,-4"/>
<text text-anchor="start" x="11" y="-10.8" font-family="Times New Roman,serif" font-size="14.00">Pin:2</text>
<polygon fill="none" stroke="black" points="42,-4 42,-25 106,-25 106,-4 42,-4"/>
<polygon fill="#097108" stroke="none" points="45,-7 45,-22 75,-22 75,-7 45,-7"/>
<text text-anchor="start" x="54.5" y="-10.8" font-family="Times New Roman,serif" font-size="14.00">G</text>
<polygon fill="#dfe782" stroke="none" points="75,-7 75,-22 103,-22 103,-7 75,-7"/>
<text text-anchor="start" x="84" y="-10.8" font-family="Times New Roman,serif" font-size="14.00">H</text>
</g>
</g>
</svg>
